<?xml version="1.0" encoding="utf-8"?>
<!-- Generator: Adobe Illustrator 18.0.0, SVG Export Plug-In . SVG Version: 6.00 Build 0)  -->
<!DOCTYPE svg PUBLIC "-//W3C//DTD SVG 1.1//EN" "http://www.w3.org/Graphics/SVG/1.1/DTD/svg11.dtd" [
	<!ENTITY ns_flows "http://ns.adobe.com/Flows/1.0/">
	<!ENTITY ns_extend "http://ns.adobe.com/Extensibility/1.0/">
	<!ENTITY ns_ai "http://ns.adobe.com/AdobeIllustrator/10.0/">
	<!ENTITY ns_graphs "http://ns.adobe.com/Graphs/1.0/">
]>
<svg version="1.1" id="Layer_1" xmlns:x="&ns_extend;" xmlns:i="&ns_ai;" xmlns:graph="&ns_graphs;"
	 xmlns="http://www.w3.org/2000/svg" xmlns:xlink="http://www.w3.org/1999/xlink" xmlns:a="http://ns.adobe.com/AdobeSVGViewerExtensions/3.0/"
	 x="0px" y="0px" viewBox="0 0 2272 1872" enable-background="new 0 0 2272 1872" xml:space="preserve">
<rect fill="#ABC5E7" width="2272" height="1872"/>
<g>
	<g>
		<g opacity="0.4"  a:adobe-blending-mode="softLight">
			<path fill="#FFFFFF"  a:adobe-blending-mode="normal" d="M413.4,1159h0.3C413.7,1159,413.6,1159,413.4,1159L413.4,1159z"/>
			<path fill="#FFFFFF"  a:adobe-blending-mode="normal" d="M1698,860.7h-677.1H609.1H120.7c-35.5,0-64.4,24-64.4,53.5
				c0,29.6,28.8,53.5,64.4,53.5h180.4c-0.5,0-0.9,0-1.4,0c24,0.6,43.2,17,43.2,37.1l0,0c0,20.1-19.2,36.4-43.2,37.1
				c0.5,0,0.9,0,1.4,0h-53.9c-30,0-54.3,20.2-54.3,45.2l0,0c0,25,24.3,45.2,54.3,45.2h172.6c6.2,2,10.6,7,10.6,12.9
				c0,7.6-7.4,13.8-16.6,13.8h3.9c-28.7,0-52,19.4-52,43.3v0c0,23.9,23.3,43.3,52,43.3h841.4c28.7,0,52-19.4,52-43.3v0
				c0-23.9-23.3-43.3-52-43.3h180.7h573.1c38.9,0,70.4-26.2,70.4-58.5c0-27.6-23-50.7-53.9-56.9c-4.6-1.1-9.4-1.6-14.4-1.6h-559.4
				c-17.1,0-30.9-11.5-30.9-25.7c0-14.2,13.9-25.7,30.9-25.7v-0.3H1698c43,0,77.9-29,77.9-64.8S1741,860.7,1698,860.7z"/>
			<circle fill="#FFFFFF"  a:adobe-blending-mode="normal" cx="262.9" cy="1212.9" r="32.2"/>
		</g>
		<g opacity="0.4"  a:adobe-blending-mode="softLight">
			<path fill="#FFFFFF"  a:adobe-blending-mode="normal" d="M853.2,901.3h0.3C853.4,901.3,853.3,901.3,853.2,901.3L853.2,901.3z"/>
			<path fill="#FFFFFF"  a:adobe-blending-mode="normal" d="M2137.8,603h-677.1h-411.8H560.5c-35.5,0-64.4,24-64.4,53.5
				c0,29.6,28.8,53.5,64.4,53.5h180.4c-0.5,0-0.9,0-1.4,0c24,0.6,43.2,17,43.2,37.1v0c0,20.1-19.2,36.4-43.2,37.1c0.5,0,0.9,0,1.4,0
				H687c-30,0-54.3,20.2-54.3,45.2l0,0c0,25,24.3,45.2,54.3,45.2h172.6c6.2,2,10.6,7,10.6,12.9c0,7.6-7.4,13.8-16.6,13.8h3.9
				c-28.7,0-52,19.4-52,43.3v0c0,23.9,23.3,43.3,52,43.3h841.4c28.7,0,52-19.4,52-43.3v0c0-23.9-23.3-43.3-52-43.3h180.7h32.2
				c38.9,0,70.4-26.2,70.4-58.5c0-27.6-23-50.7-53.9-56.9c-4.6-1.1-9.4-1.6-14.4-1.6h-18.6c-17.1,0-30.9-11.5-30.9-25.7
				c0-14.2,13.9-25.7,30.9-25.7v-0.3h242.6c43,0,77.9-29,77.9-64.8S2180.8,603,2137.8,603z"/>
			<path fill="#FFFFFF"  a:adobe-blending-mode="normal" d="M409.2,643.8H298.8c-19.8,0-35.9,13.4-35.9,29.9l0,0
				c0,16.5,16.1,29.9,35.9,29.9h110.3c19.8,0,35.9-13.4,35.9-29.9l0,0C445.1,657.2,429,643.8,409.2,643.8z"/>
			<path fill="#FFFFFF"  a:adobe-blending-mode="normal" d="M2175.9,817.5h-110.3c-19.8,0-35.9,13.4-35.9,29.9v0
				c0,16.5,16.1,29.9,35.9,29.9h110.3c19.8,0,35.9-13.4,35.9-29.9v0C2211.8,830.9,2195.7,817.5,2175.9,817.5z"/>
		</g>
	</g>
	<g>
		<circle fill="#C1D7F0" cx="1369.2" cy="1012.3" r="499.5"/>
		<path fill="#93B6D9" d="M1338,756.3c1.2-3.2,2.1-6.5,2.8-9.9c0,0,31.2,6.2,33.7-27.5c0.3-3.9,0.1-7.1-0.4-9.9
			c8.4-10.5,18.8-26,26.9-46.8c16.5-42.3-12.4-49.6-12.4-49.6s16.5-38.2-60.9-48.5c-77.4-10.3-108.4,9.3-121.8,34.1
			c-9,16.7-3.6,26.8,1,31.6c-0.3,15.3-0.5,46.6,2.1,78.7c-0.6,1.5-0.5,2.7-0.5,2.7s0.3-0.1,0.7-0.3c2.7,32,8.2,64.5,19.2,82.5
			c-0.3,0.6-0.5,1.3-0.7,1.9c-15.5,43.4-56.8,304.6-56.8,304.6l-0.8,0.8h-15.7H974.5v-28.3h-5.3v-18.1l-4.8-8v-0.4v-30.5l5.9-9.7
			v-1.3V992h-4.8v4.9h-2.9v-2.7h-3.2v5.3h-3.7v-6.6h-1.1h-3.5H950v6.6h-3.7v-5.3h-3.2v2.7h-2.9V992h-4.8v12.4v1.3l5.3,8.8h0l0.5,0.9
			v30.5v0.4l-4.3,7.1h0l-0.5,0.9v18.1h-63.2c2.7,22.6,6.9,44.7,12.5,66.3h115l57.9,147.3c-6.8,27.6-13.6,63.4-19.9,100.9
			c39.4,34.8,84.3,63.4,133.2,84.4l-7-24.4c15.2-65.2,31.7-127.3,41.8-138.1c4.7-5,14-9,26.2-12.2c-4.8,11.8-4.1,27.8-4.1,27.8h6.2
			v169.1c42.6,11.8,87.5,18.2,133.9,18.2c39.5,0,78-4.6,114.9-13.3v-174h3.8c0,0,8.9-22.2-5.2-38.1c-4.9-5.5-26.6-7.7-52.9-8.3
			c8.1-2.8,15.1-7.2,21.2-12.7l32.8,9l19.6-35.1v-97c0,0-43.4-330.4-64-357.2C1429.2,772,1383.6,759.4,1338,756.3z M1116.3,1148.4
			l-30.2,22.1l-9.1-31.7h42.3L1116.3,1148.4z M1187.5,1165.1l-4.9,3.2l1-2.4c1.4-0.8,2.8-1.5,4-2.2L1187.5,1165.1z"/>
	</g>
	<g>
		<ellipse fill="#848BB7" cx="1100" cy="1557.1" rx="876.3" ry="78.8"/>
		<ellipse fill="#6E75A3" cx="1096.3" cy="1557.1" rx="689.5" ry="48.6"/>
	</g>
	<g>
		<path fill="#FBFEFF" d="M680,476.5H576.8c-38.3,0-69.3,31-69.3,69.3V565c0,38.3,31,69.3,69.3,69.3h15.7l35.9,28.1v-28.1H680
			c38.3,0,69.3-31,69.3-69.3v-19.2C749.3,507.6,718.3,476.5,680,476.5z"/>
		<g>
			<path fill="#AAB6DD" d="M562.1,545.8c0-2.5,0.8-5,2.4-7.6c1.6-2.6,4-4.7,7-6.4c3.1-1.7,6.7-2.5,10.8-2.5c3.8,0,7.2,0.7,10.1,2.1
				c2.9,1.4,5.2,3.3,6.8,5.8c1.6,2.4,2.4,5.1,2.4,7.9c0,2.2-0.5,4.2-1.4,5.9c-0.9,1.7-2,3.1-3.2,4.4c-1.3,1.2-3.5,3.3-6.7,6.2
				c-0.9,0.8-1.6,1.5-2.2,2.2c-0.5,0.6-0.9,1.2-1.2,1.7c-0.3,0.5-0.5,1-0.6,1.5c-0.1,0.5-0.4,1.4-0.7,2.7c-0.5,2.7-2.1,4.1-4.7,4.1
				c-1.4,0-2.5-0.4-3.5-1.3c-0.9-0.9-1.4-2.2-1.4-4c0-2.2,0.3-4.1,1-5.8c0.7-1.6,1.6-3,2.7-4.3c1.1-1.2,2.7-2.7,4.6-4.4
				c1.7-1.5,2.9-2.6,3.7-3.3c0.8-0.8,1.4-1.6,1.9-2.5c0.5-0.9,0.8-1.9,0.8-3c0-2.1-0.8-3.9-2.4-5.3c-1.6-1.5-3.6-2.2-6.1-2.2
				c-2.9,0-5,0.7-6.4,2.2c-1.4,1.5-2.5,3.6-3.5,6.5c-0.9,3-2.6,4.5-5.1,4.5c-1.5,0-2.7-0.5-3.7-1.6
				C562.7,548.1,562.1,547,562.1,545.8z M581.5,589.2c-1.6,0-3-0.5-4.2-1.6c-1.2-1-1.8-2.5-1.8-4.4c0-1.7,0.6-3.1,1.7-4.2
				c1.2-1.1,2.6-1.7,4.3-1.7c1.7,0,3.1,0.6,4.2,1.7c1.1,1.1,1.7,2.5,1.7,4.2c0,1.8-0.6,3.3-1.8,4.4
				C584.4,588.6,583,589.2,581.5,589.2z"/>
			<path fill="#AAB6DD" d="M608.6,545.8c0-2.5,0.8-5,2.4-7.6c1.6-2.6,4-4.7,7-6.4c3.1-1.7,6.7-2.5,10.8-2.5c3.8,0,7.2,0.7,10.1,2.1
				c2.9,1.4,5.2,3.3,6.8,5.8c1.6,2.4,2.4,5.1,2.4,7.9c0,2.2-0.5,4.2-1.4,5.9c-0.9,1.7-2,3.1-3.2,4.4c-1.3,1.2-3.5,3.3-6.7,6.2
				c-0.9,0.8-1.6,1.5-2.2,2.2c-0.5,0.6-0.9,1.2-1.2,1.7c-0.3,0.5-0.5,1-0.6,1.5c-0.1,0.5-0.4,1.4-0.7,2.7c-0.5,2.7-2.1,4.1-4.7,4.1
				c-1.4,0-2.5-0.4-3.5-1.3c-0.9-0.9-1.4-2.2-1.4-4c0-2.2,0.3-4.1,1-5.8c0.7-1.6,1.6-3,2.7-4.3c1.1-1.2,2.7-2.7,4.6-4.4
				c1.7-1.5,2.9-2.6,3.7-3.3c0.8-0.8,1.4-1.6,1.9-2.5c0.5-0.9,0.8-1.9,0.8-3c0-2.1-0.8-3.9-2.4-5.3c-1.6-1.5-3.6-2.2-6.1-2.2
				c-2.9,0-5,0.7-6.4,2.2c-1.4,1.5-2.5,3.6-3.5,6.5c-0.9,3-2.6,4.5-5.1,4.5c-1.5,0-2.7-0.5-3.7-1.6
				C609.1,548.1,608.6,547,608.6,545.8z M627.9,589.2c-1.6,0-3-0.5-4.2-1.6c-1.2-1-1.8-2.5-1.8-4.4c0-1.7,0.6-3.1,1.7-4.2
				c1.2-1.1,2.6-1.7,4.3-1.7c1.7,0,3.1,0.6,4.2,1.7c1.1,1.1,1.7,2.5,1.7,4.2c0,1.8-0.6,3.3-1.8,4.4
				C630.9,588.6,629.5,589.2,627.9,589.2z"/>
			<path fill="#AAB6DD" d="M655.1,545.8c0-2.5,0.8-5,2.4-7.6c1.6-2.6,4-4.7,7-6.4c3.1-1.7,6.7-2.5,10.8-2.5c3.8,0,7.2,0.7,10.1,2.1
				c2.9,1.4,5.2,3.3,6.8,5.8c1.6,2.4,2.4,5.1,2.4,7.9c0,2.2-0.5,4.2-1.4,5.9c-0.9,1.7-2,3.1-3.2,4.4c-1.3,1.2-3.5,3.3-6.7,6.2
				c-0.9,0.8-1.6,1.5-2.2,2.2c-0.5,0.6-0.9,1.2-1.2,1.7c-0.3,0.5-0.5,1-0.6,1.5c-0.1,0.5-0.4,1.4-0.7,2.7c-0.5,2.7-2.1,4.1-4.7,4.1
				c-1.4,0-2.5-0.4-3.5-1.3c-0.9-0.9-1.4-2.2-1.4-4c0-2.2,0.3-4.1,1-5.8c0.7-1.6,1.6-3,2.7-4.3c1.1-1.2,2.7-2.7,4.6-4.4
				c1.7-1.5,2.9-2.6,3.7-3.3c0.8-0.8,1.4-1.6,1.9-2.5c0.5-0.9,0.8-1.9,0.8-3c0-2.1-0.8-3.9-2.4-5.3c-1.6-1.5-3.6-2.2-6.1-2.2
				c-2.9,0-5,0.7-6.4,2.2c-1.4,1.5-2.5,3.6-3.5,6.5c-0.9,3-2.6,4.5-5.1,4.5c-1.5,0-2.7-0.5-3.7-1.6
				C655.6,548.1,655.1,547,655.1,545.8z M674.4,589.2c-1.6,0-3-0.5-4.2-1.6c-1.2-1-1.8-2.5-1.8-4.4c0-1.7,0.6-3.1,1.7-4.2
				c1.2-1.1,2.6-1.7,4.3-1.7c1.7,0,3.1,0.6,4.2,1.7c1.1,1.1,1.7,2.5,1.7,4.2c0,1.8-0.6,3.3-1.8,4.4
				C677.3,588.6,676,589.2,674.4,589.2z"/>
		</g>
	</g>
	<g>
		<path fill="#FBFEFF" d="M1691.4,513.3h103.1c38.3,0,69.3,31,69.3,69.3v19.2c0,38.3-31,69.3-69.3,69.3h-15.7l-35.9,28.1v-28.1
			h-51.6c-38.3,0-69.3-31-69.3-69.3v-19.2C1622,544.3,1653.1,513.3,1691.4,513.3z"/>
		<g>
			<g>
				<path fill="#AAB6DD" d="M1688.8,567.4h88c3.5,0,6.4-2.9,6.4-6.4v-1.6c0-3.5-2.9-6.4-6.4-6.4h-88c-3.5,0-6.4,2.9-6.4,6.4v1.6
					C1682.4,564.6,1685.3,567.4,1688.8,567.4z"/>
				<path fill="#AAB6DD" d="M1814.9,582.4h-126.1c-3.5,0-6.4,2.9-6.4,6.4v1.6c0,3.5,2.9,6.4,6.4,6.4h126.1c3.5,0,6.4-2.9,6.4-6.4
					v-1.6C1821.3,585.3,1818.4,582.4,1814.9,582.4z"/>
				<path fill="#AAB6DD" d="M1711.9,613h-23.1c-3.5,0-6.4,2.9-6.4,6.4v1.6c0,3.5,2.9,6.4,6.4,6.4h23.1c3.5,0,6.4-2.9,6.4-6.4v-1.6
					C1718.3,615.8,1715.4,613,1711.9,613z"/>
				<path fill="#AAB6DD" d="M1742,613c-3.5,0-6.4,2.9-6.4,6.4v1.9c0,3.5,2.9,6.4,6.4,6.4c3.5,0,6.4-2.9,6.4-6.4v-1.9
					C1748.4,615.8,1745.5,613,1742,613z"/>
				<path fill="#AAB6DD" d="M1767.1,613c-3.5,0-6.4,2.9-6.4,6.4v1.9c0,3.5,2.9,6.4,6.4,6.4c3.5,0,6.4-2.9,6.4-6.4v-1.9
					C1773.5,615.8,1770.7,613,1767.1,613z"/>
			</g>
		</g>
	</g>
	<g>
		<path fill="#FBFEFF" d="M542.8,705.5h-41.4c-3.4,0-6.2,2.8-6.2,6.2c0,3.4,2.8,6.2,6.2,6.2h41.4c3.4,0,6.2-2.8,6.2-6.2
			C549.1,708.3,546.3,705.5,542.8,705.5z"/>
		<path fill="#FBFEFF" d="M542.8,732.7h-66.2c-3.4,0-6.2,2.8-6.2,6.2c0,3.4,2.8,6.2,6.2,6.2h66.2c3.4,0,6.2-2.8,6.2-6.2
			C549.1,735.5,546.3,732.7,542.8,732.7z"/>
		<path fill="#FBFEFF" d="M451.5,732.7h-7.3c-3.4,0-6.2,2.8-6.2,6.2c0,3.4,2.8,6.2,6.2,6.2h7.3c3.4,0,6.2-2.8,6.2-6.2
			C457.7,735.5,454.9,732.7,451.5,732.7z"/>
	</g>
	<g>
		<polygon fill="#6E75A3" points="1249.5,388.6 1194.7,388.6 1194.7,347.7 1120.1,347.7 1120.1,294.2 1108.1,294.2 1108.1,195.7 
			1094,195.7 1094,294.2 1082,294.2 1082,347.7 1007.4,347.7 1007.4,388.6 952.6,388.6 938.1,429.9 1263.9,429.9 		"/>
		<polygon opacity="0.3" fill="#FFFFFF"  a:adobe-blending-mode="softLight" points="1261.8,429.9 1102.1,429.9 942.5,429.9 
			718.3,1110.9 1102.1,1110.9 1486,1110.9 		"/>
	</g>
	<g>
		<g>
			<path fill="#C49A6C" d="M1449.4,1121.9L1286,1502.4c0,0-13.2,8.4-20.6,1.4l119.2-381.9H1449.4z"/>
		</g>
		<path fill="#493848" d="M775,956.9l21.5,48.1c0,0,61.9,0,71.3-30.9c0,0-48.1-106.5-74.7-116C766.4,848.7,775,956.9,775,956.9z"/>
		<g>
			<path fill="#694629" d="M641.2,1287.5v283.2h11.2c0-0.1,0-0.3,0-0.4v-13.6c0-27.7,10.1-50.2,22.6-50.2h5.6
				c12.5,0,22.6,22.5,22.6,50.2v13.6c0,0.1,0,0.3,0,0.4h11.2v-283.2H641.2z"/>
			<path fill="#755D3E" d="M706.1,1429.8c0,27.7-10.1,50.2-22.6,50.2h-9.6c-12.5,0-22.6-22.5-22.6-50.2v-65.6
				c0-27.7,10.1-50.2,22.6-50.2h9.6c12.5,0,22.6,22.5,22.6,50.2V1429.8z"/>
			<path fill="#8B5E3C" d="M507.5,1287.5v283.2h20.9c0-0.1,0-0.3,0-0.4v-13.6c0-27.7,18.9-50.2,42.1-50.2H581
				c23.2,0,42.1,22.5,42.1,50.2v13.6c0,0.1,0,0.3,0,0.4h20.9v-283.2H507.5z"/>
			<path fill="#C49A6C" d="M628.4,1429.8c0,27.7-18.8,50.2-42.1,50.2h-17.9c-23.3,0-42.1-22.5-42.1-50.2v-65.6
				c0-27.7,18.8-50.2,42.1-50.2h17.9c23.2,0,42.1,22.5,42.1,50.2V1429.8z"/>
			<path fill="#E44145" d="M504.3,1289h142.3h73c0,0,1.2-30.2-13.6-33.2c-14.9-2.9-55.7-2.2-55.7-2.2s-129.9-9.6-141.7,3.7
				C496.9,1270.5,504.3,1289,504.3,1289z"/>
			<path fill="#B12227" d="M645.4,1289h74.3c0,0,1.2-30.2-13.6-33.2c-14.9-2.9-55.7-2.2-55.7-2.2s-4.4-0.3-11.7-0.8
				c3.9,4.9,6.8,11.7,6.8,21.4V1289z"/>
		</g>
		<g>
			<path fill="#939393" d="M1219.7,1540.3c0,0-10.5-0.6-12.1-0.6s-3.3,2.2-3.3,5c0,2.8,0.6,10.5,0.6,10.5s5,5,32.6,6.1
				c27.6,1.1,59.6,2.2,75.6,3.3c16,1.1,24.3,2.2,27-5.5c2.8-7.7,2.8-18.2,2.8-18.2L1219.7,1540.3z"/>
			<path fill="#60524D" d="M1304.6,1480.7c0,0,1.7,36.4-16.6,43c-18.2,6.6-53.5-3.3-66.8-1.7c-13.2,1.7-15.4,20.4-15.4,20.4
				s8.3,6.1,38.6,6.1c30.3,0,85,8.8,93.2,2.8c8.3-6.1,6.6-46.3,6.6-46.3L1304.6,1480.7z"/>
			<path fill="#736E6C" d="M1288.1,1523.7c-12.4,4.5-32.9,1.3-48.8-0.6l3.4,4.1c0,0,34.9,7,51.5,0.4c16.6-6.6,19.5-20.2,19.5-20.2
				s-7.7-5.4-10.8-6.1C1300.9,1510.7,1296.7,1520.6,1288.1,1523.7z"/>
			<path fill="#858081" d="M1246.4,1548.6c3.3-12.7-1.6-20.9-5.6-25.3c-8-1-15-1.8-19.5-1.2c-13.2,1.7-15.4,20.4-15.4,20.4
				s8.3,6.1,38.6,6.1C1245.1,1548.5,1245.8,1548.6,1246.4,1548.6z"/>
			<path fill="#393231" d="M1341.9,1550.8c-2.5,4-8.1,5.1-20.2,5.2c-4,0-8.7-0.1-14.2-0.3c-26.2-0.8-42.7-4.7-71.7-4.7
				c-14.4,0-22.7-1.9-27.3-3.8c-2-0.8-3.3-1.6-4.1-2.2c0,0.4,0,0.9,0,1.4c3.6,2.4,12.1,5.8,31.4,5.8c28.9,0,45.4,3.9,71.7,4.7
				c5.5,0.2,10.2,0.3,14.3,0.3c0.2,0,0.4,0,0.6,0c10.1,0,16-1,19.2-4.1C1341.6,1552.3,1341.8,1551.6,1341.9,1550.8z"/>
			<circle fill="#736E6C" cx="1322.5" cy="1531.6" r="10.3"/>
		</g>
		<g>
			<g>
				<path fill="#FFD596" d="M1340,1195.9c-6.7-9.2-4.7-22.1,4.5-28.8l0,0l101.1-73.8l29.8-231.7c1.5-11.3,11.8-19.3,23.1-17.8l0,0
					c11.3,1.4,19.3,11.8,17.8,23.1l0,0l-30.9,240.5c-0.7,5.6-3.7,10.7-8.3,14l0,0l-108.2,79c-3.7,2.7-7.9,4-12.1,4l0,0
					C1350.3,1204.4,1344,1201.4,1340,1195.9L1340,1195.9z"/>
			</g>
		</g>
		<path fill="#433D38" d="M1394.4,1130.5l30.1,31.8c0,0,14.6-7.7,17.2-9.4c2.6-1.7,49-36.1,49-36.1s34.4-237.1,31.8-257.7
			c-2.6-20.6-38.7-46.4-51.5-10.3c-12.9,36.1-47.2,253.4-47.2,253.4L1394.4,1130.5z"/>
		<path fill="#421C33" d="M1496.5,1157.7c0,0-125.9,27.7-151.1,57.9c-25.2,30.2-56.7,305.9-56.7,305.9s22.7,7.6,56.7,7.6
			c0,0,45.3-232.9,64.2-253c18.9-20.1,125.9-20.1,170-22.7c44.1-2.5,59.2-49.1,59.2-89.4c0-40.3,0-25.2,0-25.2h-141L1496.5,1157.7z"
			/>
		<g>
			<path fill="#C49A6C" d="M738.7,1121.9l163.3,415.5c0,0,13.2,9.2,20.6,1.5l-119.2-417H738.7z"/>
			<g>
				<g>
					<polygon fill="#F2DBC6" points="937.6,1080 937.6,1013 933.9,1013 933.9,1018.5 930.8,1018.5 930.8,1014.1 928.1,1014.1 
						928.1,1016.3 925.7,1016.3 925.7,1012.3 921.7,1012.3 921.7,1023.7 926.6,1031.8 926.6,1057.5 922.6,1064.1 922.6,1080 					
						"/>
					<polygon fill="#D0BB9D" points="937.6,1022.6 921.7,1022.6 921.7,1023.7 926.1,1031 937.6,1031 					"/>
					<polygon fill="#F2EAE4" points="937.6,1063.4 937.6,1057.2 926.6,1057.2 926.6,1057.5 923,1063.4 					"/>
				</g>
				<g>
					<polygon fill="#F2DBC6" points="934.8,1080 934.8,1013 938.5,1013 938.5,1018.5 941.6,1018.5 941.6,1014.1 944.3,1014.1 
						944.3,1016.3 946.7,1016.3 946.7,1012.3 950.7,1012.3 950.7,1023.7 945.9,1031.8 945.9,1057.5 949.8,1064.1 949.8,1080 					
						"/>
					<polygon fill="#D0BB9D" points="934.8,1022.6 950.7,1022.6 950.7,1023.7 946.3,1031 934.8,1031 					"/>
					<polygon fill="#F2EAE4" points="934.8,1063.4 934.8,1057.2 945.9,1057.2 945.9,1057.5 949.4,1063.4 					"/>
				</g>
			</g>
			<g>
				<g>
					<polygon fill="#8B5E3C" points="1243.7,1080 1243.7,1013 1239.9,1013 1239.9,1018.5 1236.8,1018.5 1236.8,1014.1 
						1234.1,1014.1 1234.1,1016.3 1231.7,1016.3 1231.7,1012.3 1227.7,1012.3 1227.7,1023.7 1232.6,1031.8 1232.6,1057.5 
						1228.6,1064.1 1228.6,1080 					"/>
					<polygon fill="#603913" points="1243.7,1022.6 1227.7,1022.6 1227.7,1023.7 1232.1,1031 1243.7,1031 					"/>
					<polygon fill="#C49A6C" points="1243.7,1063.4 1243.7,1057.2 1232.6,1057.2 1232.6,1057.5 1229,1063.4 					"/>
				</g>
				<g>
					<polygon fill="#8B5E3C" points="1240.8,1080 1240.8,1013 1244.6,1013 1244.6,1018.5 1247.7,1018.5 1247.7,1014.1 
						1250.3,1014.1 1250.3,1016.3 1252.8,1016.3 1252.8,1012.3 1256.8,1012.3 1256.8,1023.7 1251.9,1031.8 1251.9,1057.5 
						1255.9,1064.1 1255.9,1080 					"/>
					<polygon fill="#603913" points="1240.8,1022.6 1256.8,1022.6 1256.8,1023.7 1252.3,1031 1240.8,1031 					"/>
					<polygon fill="#C49A6C" points="1240.8,1063.4 1240.8,1057.2 1251.9,1057.2 1251.9,1057.5 1255.4,1063.4 					"/>
				</g>
			</g>
			<g>
				<path fill="#8B5E3C" d="M1037.5,1080v-26.8c0,0-6.1,0.9-6.1,5.1c0,4.2,3.2,5.8,3.2,5.8v11.1l-6.4,2.4v2.4H1037.5z"/>
				<path fill="#603913" d="M1037.5,1059.8c-4-0.1-5-0.6-6.1-1.1c0.2,2.7,1.3,4.3,2.4,4.9h3.7V1059.8z"/>
				<polygon fill="#C49A6C" points="1037.5,1075.1 1034.5,1075.1 1028.1,1077.5 1037.5,1077.5 				"/>
				<path fill="#8B5E3C" d="M1037.4,1080v-26.8c0,0,6.1,0.9,6.1,5.1c0,4.2-3.2,5.8-3.2,5.8v11.1l6.4,2.4v2.4H1037.4z"/>
				<path fill="#603913" d="M1037.4,1059.8c4-0.1,5-0.6,6.1-1.1c-0.2,2.7-1.3,4.3-2.4,4.9h-3.7V1059.8z"/>
				<polygon fill="#C49A6C" points="1037.4,1075.1 1040.4,1075.1 1046.8,1077.5 1037.4,1077.5 				"/>
			</g>
			<g>
				<path fill="#F2DBC6" d="M1103,1080v-26.8c0,0-6.1,0.9-6.1,5.1c0,4.2,3.2,5.8,3.2,5.8v11.1l-6.4,2.4v2.4H1103z"/>
				<path fill="#D0BB9D" d="M1103,1059.8c-4-0.1-5-0.6-6.1-1.1c0.2,2.7,1.3,4.3,2.4,4.9h3.7V1059.8z"/>
				<polygon fill="#F2EAE4" points="1103,1075.1 1099.9,1075.1 1093.6,1077.5 1103,1077.5 				"/>
				<path fill="#F2DBC6" d="M1102.9,1080v-26.8c0,0,6.1,0.9,6.1,5.1c0,4.2-3.2,5.8-3.2,5.8v11.1l6.4,2.4v2.4H1102.9z"/>
				<path fill="#D0BB9D" d="M1102.9,1059.8c4-0.1,5-0.6,6.1-1.1c-0.2,2.7-1.3,4.3-2.4,4.9h-3.7V1059.8z"/>
				<polygon fill="#F2EAE4" points="1102.9,1075.1 1105.9,1075.1 1112.3,1077.5 1102.9,1077.5 				"/>
			</g>
			<g>
				<path fill="#8B5E3C" d="M1135.3,1080v-26.8c0,0-6.1,0.9-6.1,5.1c0,4.2,3.2,5.8,3.2,5.8v11.1l-6.4,2.4v2.4H1135.3z"/>
				<path fill="#603913" d="M1135.3,1059.8c-4-0.1-5-0.6-6.1-1.1c0.2,2.7,1.3,4.3,2.4,4.9h3.7V1059.8z"/>
				<polygon fill="#C49A6C" points="1135.3,1075.1 1132.3,1075.1 1126,1077.5 1135.3,1077.5 				"/>
				<path fill="#8B5E3C" d="M1135.2,1080v-26.8c0,0,6.1,0.9,6.1,5.1c0,4.2-3.2,5.8-3.2,5.8v11.1l6.4,2.4v2.4H1135.2z"/>
				<path fill="#603913" d="M1135.2,1059.8c4-0.1,5-0.6,6.1-1.1c-0.2,2.7-1.3,4.3-2.4,4.9h-3.7V1059.8z"/>
				<polygon fill="#C49A6C" points="1135.2,1075.1 1138.3,1075.1 1144.6,1077.5 1135.2,1077.5 				"/>
			</g>
			<rect x="917.5" y="1079.2" fill="#764122" width="342.8" height="31.6"/>
			<rect x="705.6" y="1102.8" fill="#C49A6C" width="766.5" height="31.6"/>
		</g>
		<path fill="#D5CFCE" d="M770.2,1460.6l-5.5,37c0,0,5.5,12.1,32.6,4.4l4.4-29.2L770.2,1460.6z"/>
		<g>
			<path fill="#352634" d="M761.7,1516l-7.8,4.9l0.7,9.6l25.7,3.6l0.5-5.2l5.5-0.3l0.3,5.5c0,0,13.8,1.4,29.2,7.4
				c15.4,6,50.9-6.9,50.9-6.9l-0.3-5.5l-83.2-9.1L761.7,1516z"/>
			<path fill="#493848" d="M752,1510.7c0,0,1.5-15.2,9.3-24c0,0-0.5-5.1,0.2-6.8c0.7-1.7,6.4-2.5,8.7,0.4c2.3,2.9,1.2,7.3,1.2,7.3
				s4.7,2.9,16.6,4.1c11.9,1.2,11.1-3.1,11.1-3.1s-2.4-5.3-0.4-9c1.9-3.7,15.9-8.1,17.7-2.5c1.8,5.6-1.1,11.9-1.6,13.2
				c-0.5,1.3,9.4,27.8,50,28.7l2,10.1c0,0-25.1,11.5-50,4.3c-24.8-7.2-32.9-9.3-40.9-8.9c-8,0.3-21.8-3.5-21.8-3.5L752,1510.7z"/>
		</g>
		<path fill="#D5CFCE" d="M885.2,1470.7l9.2,36.2c0,0,9.8,9.1,31.7-8.5l-7.2-28.7L885.2,1470.7z"/>
		<path fill="#D7B583" d="M653.8,1132.9l12.1-7.7H699v41.9c0,0-4.4,22.1,69.5,41.9c73.9,19.9,96,35.3,98.2,64
			c2.2,28.7-54.1,209.7-54.1,209.7s-49.7,9.9-48.6-21c0,0,12.1-143.4,6.6-166.6c-5.5-23.2-107-18.8-131.3-50.8
			C615.2,1212.4,653.8,1132.9,653.8,1132.9z"/>
		<path fill="#F0CC88" d="M525.8,1126.3h145.7v35.3c0,0,3.3,14.3,24.3,14.3c21,0,133,43.6,161.1,71.7
			c28.1,28.1,79.4,231.7,79.4,231.7s-41.9,33.1-64,7.7c0,0-67.3-185.4-79.4-192c-12.1-6.6-241.7-11-262.6-55.2
			C509.2,1195.8,525.8,1126.3,525.8,1126.3z"/>
		<path fill="#493848" d="M591.2,845.3c0,0-64.4,234.5-77.3,271.5c-12.9,36.9-12,79.9-12,79.9s42.1,23.2,90.2,18.9
			c48.1-4.3,100.5-32.6,100.5-32.6l11.2-7.7l13.7,7.7h30.1c0,0,39.5-171.8,47.2-235.4c7.7-63.6,19.8-89.3-24.9-111.7
			C725.2,813.5,591.2,845.3,591.2,845.3z"/>
		<g>
			<path fill="#352634" d="M896,1542.8l-6.6,8.8l5,10.5l30.3-7.2l-1.7-6.1l6.1-2.8l2.8,6.1c0,0,16-4.4,35.9-4.4
				c19.9,0,54.1-29.8,54.1-29.8l-2.8-6.1l-97.1,25.9L896,1542.8z"/>
			<path fill="#493848" d="M882.7,1541.2c0,0-5-17.7,0-30.9c0,0-2.8-5.5-2.8-7.7c0-2.2,6.1-5.5,9.9-3.3c3.9,2.2,4.5,7.6,4.5,7.6
				s6.6,1.2,20.4-2.7c13.8-3.9,11-8.3,11-8.3s-5-5-4.4-9.9c0.6-5,14.3-16,18.8-10.5c4.4,5.5,3.9,13.8,3.9,15.4
				c0,1.7,22.6,27,68.4,10.5l6.6,10.5c0,0-23.2,23.7-54.1,26.5c-30.9,2.8-40.8,3.9-49.7,7.7c-8.8,3.9-25.9,5.5-25.9,5.5
				L882.7,1541.2z"/>
		</g>
		<g>
			<path fill="#694629" d="M1550.6,1287.5v283.2h-11.2c0-0.1,0-0.3,0-0.4v-13.6c0-27.7-10.1-50.2-22.6-50.2h-5.6
				c-12.5,0-22.6,22.5-22.6,50.2v13.6c0,0.1,0,0.3,0,0.4h-11.2v-283.2H1550.6z"/>
			<path fill="#755D3E" d="M1485.6,1429.8c0,27.7,10.1,50.2,22.6,50.2h9.6c12.5,0,22.6-22.5,22.6-50.2v-65.6
				c0-27.7-10.1-50.2-22.6-50.2h-9.6c-12.5,0-22.6,22.5-22.6,50.2V1429.8z"/>
			<path fill="#8B5E3C" d="M1684.2,1287.5v283.2h-20.9c0-0.1,0-0.3,0-0.4v-13.6c0-27.7-18.8-50.2-42.1-50.2h-10.5
				c-23.2,0-42.1,22.5-42.1,50.2v13.6c0,0.1,0,0.3,0,0.4h-20.9v-283.2H1684.2z"/>
			<path fill="#C49A6C" d="M1563.3,1429.8c0,27.7,18.8,50.2,42.1,50.2h17.9c23.2,0,42.1-22.5,42.1-50.2v-65.6
				c0-27.7-18.9-50.2-42.1-50.2h-17.9c-23.3,0-42.1,22.5-42.1,50.2V1429.8z"/>
			<path fill="#E44145" d="M1687.4,1289h-142.3h-73c0,0-1.2-30.2,13.6-33.2c14.9-2.9,55.7-2.2,55.7-2.2s129.9-9.6,141.7,3.7
				C1694.8,1270.5,1687.4,1289,1687.4,1289z"/>
			<path fill="#B12227" d="M1546.3,1289h-74.3c0,0-1.2-30.2,13.6-33.2c14.9-2.9,55.7-2.2,55.7-2.2s4.4-0.3,11.7-0.8
				c-3.9,4.9-6.8,11.7-6.8,21.4V1289z"/>
		</g>
		<g>
			<path fill="#D6D5D2" d="M1262.3,1553.9c0,0-10.5-0.6-12.1-0.6c-1.7,0-3.3,2.2-3.3,5c0,2.8,0.6,10.5,0.6,10.5s5,5,32.6,6.1
				c27.6,1.1,59.6,2.2,75.6,3.3c16,1.1,24.3,2.2,27-5.5c2.8-7.7,2.8-18.2,2.8-18.2L1262.3,1553.9z"/>
			<path fill="#5E4F4B" d="M1347.3,1494.3c0,0,1.7,36.4-16.6,43c-18.2,6.6-53.5-3.3-66.8-1.7c-13.2,1.7-15.4,20.4-15.4,20.4
				s8.3,6.1,38.6,6.1c30.3,0,85,8.8,93.2,2.8c8.3-6.1,6.6-46.3,6.6-46.3L1347.3,1494.3z"/>
			<path fill="#8C8582" d="M1330.7,1537.3c-12.4,4.5-32.9,1.3-48.8-0.6l3.4,4.1c0,0,34.9,7,51.5,0.4c16.6-6.6,19.5-20.2,19.5-20.2
				s-7.7-5.4-10.8-6.1C1343.5,1524.3,1339.4,1534.2,1330.7,1537.3z"/>
			<path fill="#BAB3B2" d="M1289.1,1562.2c3.3-12.7-1.6-20.9-5.6-25.3c-8-1-15-1.8-19.5-1.2c-13.2,1.7-15.4,20.4-15.4,20.4
				s8.3,6.1,38.6,6.1C1287.8,1562.2,1288.4,1562.2,1289.1,1562.2z"/>
			<path d="M1384.5,1564.5c-2.5,4-8.1,5.1-20.2,5.2c-4,0-8.8-0.1-14.2-0.3c-26.1-0.8-42.7-4.7-71.7-4.7c-14.4,0-22.7-1.9-27.3-3.8
				c-2-0.8-3.3-1.6-4.1-2.2c0,0.4,0,0.9,0,1.4c3.6,2.4,12.1,5.8,31.4,5.8c28.9,0,45.4,3.9,71.7,4.7c5.5,0.2,10.2,0.3,14.3,0.3
				c0.2,0,0.4,0,0.6,0c10.1,0,16-1,19.3-4.1C1384.3,1565.9,1384.4,1565.2,1384.5,1564.5z"/>
			<circle fill="#8C8582" cx="1365.1" cy="1545.2" r="10.3"/>
		</g>
		<path fill="#4E243A" d="M1540.5,1157.7c0,0-125.9,27.7-151.1,57.9c-25.2,30.2-56.7,305.9-56.7,305.9s22.7,7.6,56.7,7.6
			c0,0,45.3-232.9,64.2-253c18.9-20.1,125.9-20.1,170-22.7c44.1-2.5,59.2-49.1,59.2-89.4c0-40.3,0-25.2,0-25.2h-141L1540.5,1157.7z"
			/>
		<path fill="#6F625D" d="M1477.7,842.7l-41.2,321.3l47.2-13.7l43.8,6.9l72.2,67l84.2,23.2l16.3-29.2v-80.8
			c0,0-36.1-274.9-53.3-297.2C1629.8,817.8,1488.1,797.2,1477.7,842.7z"/>
		<path fill="#7D756E" d="M1462.3,1065.2l64.4-63.6l-3.4-18l33.5-40.4l24.9-106.5c0,0-6-7.7-9.4-7.7c-3.4,0-79.9,7.7-79.9,7.7
			l-18.9,20.6l-7.7,88.5l5.2,30.9l-12,14.6L1462.3,1065.2z"/>
		<g>
			<path fill="#FFD596" d="M706.3,1113.6c-4.8-1.8-10.1-4.2-16-7.1l0,0c-11.8-5.8-25.8-13.7-40.1-23l0,0
				c-28.7-18.9-58.5-41.2-73.6-67.7l0,0c-7.7-14.2-9.6-29.5-9.7-44.8l0,0c0.3-49.1,22-102.9,22.3-104.1l0,0h0
				c4.1-10.6,16.1-15.9,26.7-11.7l0,0c10.6,4.1,15.9,16.1,11.7,26.7l0,0c0,0-0.2,0.6-0.8,2l0,0c-0.5,1.4-1.3,3.5-2.2,6.2l0,0
				c-1.8,5.4-4.3,13-6.8,21.9l0,0c-5,17.7-9.7,40.7-9.7,58.9l0,0c-0.1,11.2,1.9,20.3,4.6,24.9l0,0c4.8,9.2,19.5,24,36.9,37l0,0
				c17.4,13.2,37.4,25.5,53,33.6l0,0c8.9,4.7,16.9,8.1,20.2,9.2l0,0c0.3-0.1,0.6-0.2,1-0.4l0,0c1.7-0.7,4.3-2,7.6-3.8l0,0
				c6.6-3.3,16.4-9,30.4-9.1l0,0c3.1,0,6.5,0.3,9.8,1l0,0c11.6,2.5,20.2,6.7,26.2,12.4l0,0c6.1,5.6,8.6,12.3,9.1,16l0,0
				c1.9,11.2-5.7,21.9-17,23.7l0,0c-8.7,1.5-17.1-2.8-21.2-10l0,0c-1-0.5-2.9-1.1-5.8-1.8l0,0c-0.4-0.1-0.7-0.1-1.1-0.1l0,0
				c-1.3-0.1-5,1-11.2,4.4l0,0c-6.2,2.9-14.5,8.7-28.4,9.1l0,0C714.8,1116.9,711.4,1115.3,706.3,1113.6L706.3,1113.6z"/>
		</g>
		<g>
			<path fill="#FFD596" d="M857.5,1118.4c-9.8-0.5-13.3-4.7-15.4-6.5l0,0c-2.1-2.1-3.2-3.7-4.1-5.2l0,0c-1.8-2.9-3.1-5.6-4.5-8.7
				l0,0c-2.8-6.2-5.7-13.9-9-23.2l0,0c-6.5-18.4-14.2-42.4-21.6-66.4l0,0c-14.7-48-28.3-95.7-28.3-95.8l0,0
				c-3.1-10.9,3.3-22.4,14.2-25.5l0,0c11-3.1,22.4,3.3,25.5,14.2l0,0c0,0.1,5.9,20.7,14.1,48.4l0,0c0.9,2.9,1.7,5.8,2.6,8.8l0,0
				c6.1,1.9,11.2,6.5,13.5,12.9l0,0c0,0.1,6.6,18.8,13.9,41.6l0,0c7.4,22.9,15.6,49.3,19.2,66.8l0,0c1,5.2,1.8,9.4,1.9,14.6l0,0
				c0,1.8-0.1,3.7-0.7,6.6l0,0c-0.7,2.7-1.8,7.1-7.1,12l0,0c-3.4,3.1-9,5.2-13.6,5.2l0,0C857.8,1118.4,857.6,1118.4,857.5,1118.4
				L857.5,1118.4z"/>
		</g>
		<path fill="#603913" d="M704.8,824.6l-24.5-8.4l1.9-15.5c0,0-24.2-28.5-26.1-36.8c-1.9-8.4,6.7-30.5,6.7-30.5s-9.2-9.5,11.4-31.4
			c20.6-21.9,80.2-29.2,106.6-30.5c26.4-1.3,53.5,24.1,53.5,24.1l-9,10.3l12.2-0.6l-6.4,20.6c0,0-3.9,15.5-3.9,19.3
			c0,3.9-16.1,21.3-18.7,23.8c-2.6,2.6-97.9,58.6-97.9,58.6L704.8,824.6z"/>
		<path fill="#FFD596" d="M818,739c0,0,6.2,149.7-32.2,155.9c-38.5,6.2-72.8-19.7-79-50.9c0,0-26,5.2-28.1-22.9
			c-2.1-28.1,23.9-18.7,23.9-18.7l7.3,12.5l12.5-8.3l-4.2-33.3l6.2,4.2v-18.7c0,0,18.7-18.7,33.3-21.8c14.6-3.1,38.5-9.4,38.5-9.4
			l-15.6,14.5L818,739z"/>
		<path fill="#493848" d="M591.2,845.3c0,0-43,124.6-42.1,145.2c0.9,20.6,1.7,30.9,1.7,30.9s46.4,20.6,91.1-10.3l6.9-125.4
			C648.7,885.6,637.6,834.1,591.2,845.3z"/>
		<path fill="#FAB072" d="M792.4,806c0,0-9.7,32.9-1.3,36.1c8.4,3.2,22.6,1.3,22.6-11C813.7,818.8,792.4,806,792.4,806z"/>
		<path fill="#603913" d="M768.6,805.3l3.7,0.4c0.1-0.7,0.1-1.4,0.1-2.2c0-4.5-1.5-8.2-3.4-8.2c-1.9,0-3.4,3.7-3.4,8.2
			c0,4.5,1.5,8.2,3.4,8.2c1.3,0,2.4-1.6,3-4.1L768.6,805.3z"/>
		<path fill="#603913" d="M808.5,803.2l3.7,0.4c0.1-0.7,0.1-1.4,0.1-2.2c0-4.5-1.5-8.2-3.4-8.2c-1.9,0-3.4,3.7-3.4,8.2
			c0,4.5,1.5,8.2,3.4,8.2c1.3,0,2.4-1.6,3-4.1L808.5,803.2z"/>
		<polygon fill="#603913" points="799.5,869.3 788.3,872.3 789.6,874.9 		"/>
		<path fill="#603913" d="M773.7,776.1c0,0-9.9,0.9-9.9,3C763.9,781.3,781,780,773.7,776.1z"/>
		<path fill="#603913" d="M812.4,776.5c0,0-9.9,0.9-9.9,3C802.5,781.7,819.7,780.4,812.4,776.5z"/>
		<g>
			<path fill="#FFD596" d="M1402.9,1203.6c-6.2-9.5-3.6-22.3,5.9-28.5l0,0l141.7-92.8l27.9-198.6v0c1.6-11.3,12-19.1,23.3-17.6l0,0
				c11.3,1.6,19.1,12,17.6,23.3l0,0l-29.2,207.9c-0.8,5.9-4.1,11.1-9.1,14.4l0,0l-149.5,97.9c-3.5,2.3-7.4,3.4-11.3,3.4l0,0
				C1413.5,1212.9,1406.9,1209.7,1402.9,1203.6L1402.9,1203.6z"/>
		</g>
		<path fill="#7D756E" d="M1460.6,1137.3l-19.8,12l30.9,46.4l20.6-23.2c0,0,98.8-33.5,116.8-73.9s28.3-203.6,26.6-220.8
			c-1.7-17.2-19.8-36.1-46.4-23.2c-26.6,12.9-45.5,213-45.5,213L1460.6,1137.3z"/>
		<path fill="#FFFFFF" d="M1492.4,836.7l-20.6,184.7L1577.4,835C1577.4,835,1535.3,808.3,1492.4,836.7z"/>
		<path fill="#FDC17C" d="M1511.3,836.7l11.2,22.3c0,0,21.5,10.3,39.5-11.2c18-21.5-2.6-16.3-2.6-16.3l-4.3-12.9L1511.3,836.7z"/>
		<path fill="#433D38" d="M1457.1,713.8c0,0-15.5-8.6-4.3-29.2c11.2-20.6,36.9-36.9,101.4-28.3c64.4,8.6,50.7,40.4,50.7,40.4
			s24.1,6,10.3,41.2c-13.7,35.2-35.2,52.4-35.2,52.4h-23.2l-27.5-12.9L1457.1,713.8z"/>
		<path fill="#FFD596" d="M1453.9,702.9c0,0-6.2,149.7,32.2,155.9c38.5,6.2,72.8-19.7,79-50.9c0,0,26,5.2,28.1-22.9
			c2.1-28.1-23.9-18.7-23.9-18.7l-7.3,12.5l-12.5-8.3l4.2-33.3l-6.2,4.2v-18.7c0,0-18.7-18.7-33.3-21.8c-14.6-3.1-38.5-9.4-38.5-9.4
			l15.6,14.5L1453.9,702.9z"/>
		<rect x="1409.9" y="1102.8" fill="#C49A6C" width="62.3" height="31.6"/>
		<path fill="#433D38" d="M1499.2,778.7c0,0,7.7-3.9,15-3c7.3,0.9,11.2,4.7,11.2,4.7s-2.1-8.6-14.6-8.6
			C1498.4,771.8,1499.2,778.7,1499.2,778.7z"/>
		<path fill="#433D38" d="M1455,778.7c0,0,7.7-3.9,15-3c7.3,0.9,11.2,4.7,11.2,4.7s-2.1-8.6-14.6-8.6S1455,778.7,1455,778.7z"/>
		<path fill="#433D38" d="M1499.7,762.8c0,0-0.4,0.9,2.6,0.9c3,0,9-4.3,11.6-4.3c2.6,0,12,6,12,6s-0.9-9.4-12-9.4
			C1502.7,755.9,1499.7,762.8,1499.7,762.8z"/>
		<path fill="#433D38" d="M1457.1,760.6c0,0-0.4,0.9,2.6,0.9c3,0,9-4.3,11.6-4.3c2.6,0,12,6,12,6s-0.9-9.4-12-9.4
			C1460.1,753.8,1457.1,760.6,1457.1,760.6z"/>
		<path fill="#433D38" d="M1472.2,824.6c0,0,6,15.5,19.3,15c13.3-0.4,28.3-16.3,28.3-16.3s-12.9,18.9-27.9,19.3
			C1476.9,843.1,1472.2,824.6,1472.2,824.6z"/>
		<path fill="#F9AD7F" d="M1488.5,783.4c0,0-12.5,22.8-11.2,27.9c1.3,5.2,12.9,4.7,12.9,4.7s4.7-0.4,5.6-6.4
			C1496.6,803.6,1488.5,783.4,1488.5,783.4z"/>
		<path fill="#C49A6C" d="M1277.2,1121.9l163.3,415.5c0,0,13.2,9.2,20.6,1.5l-119.2-417H1277.2z"/>
		<path fill="#C49A6C" d="M910.9,1121.9l-163.3,380.5c0,0-13.2,8.4-20.6,1.4l119.2-381.9H910.9z"/>
	</g>
	<g>
		<path fill="#FBFEFF" d="M1729.9,736.8h-23.8c-19.8,0-35.9,16.1-35.9,35.9v9.9c0,17.9,13.1,32.6,30.2,35.4c0.9,3.9,2,11.5-2.8,14.9
			c0,0,16.4-3.1,19.8-14.5h11h1.5c19.8,0,35.9-16.1,35.9-35.9v-9.9C1765.8,752.9,1749.8,736.8,1729.9,736.8z"/>
		<path fill="#F2665D" d="M1740,777.7c1.5-2,2.5-4.6,2.5-7.3c0-6.8-5.5-12.2-12.2-12.2c-6.8,0-12.2,5.5-12.2,12.2
			c0-6.8-5.5-12.2-12.2-12.2s-12.2,5.5-12.2,12.2c0,2.8,0.9,5.3,2.5,7.3l0,0h0c0.4,0.5,0.8,1,1.3,1.5l20.7,23.5l20.7-23.5
			C1739.2,778.7,1739.6,778.2,1740,777.7L1740,777.7L1740,777.7z"/>
	</g>
	<circle fill="#FBFEFF" cx="476.4" cy="965.8" r="18.7"/>
	<circle fill="#FBFEFF" cx="1785.8" cy="1063.4" r="18.7"/>
	<circle fill="#FBFEFF" cx="394.9" cy="893.9" r="7.4"/>
	<circle fill="#FBFEFF" cx="1538.4" cy="476.5" r="7.4"/>
	<circle fill="#FBFEFF" cx="1821.3" cy="1102.8" r="7.4"/>
	<circle fill="#FBFEFF" cx="401.3" cy="1383.1" r="13.9"/>
	<circle fill="#FBFEFF" cx="1895.6" cy="745.2" r="13.9"/>
	<g>
		<ellipse fill="#6E75A3" cx="1684.2" cy="1665" rx="35.9" ry="11.2"/>
		<ellipse fill="#6E75A3" cx="1746.3" cy="1637.7" rx="17.6" ry="6.6"/>
	</g>
</g>
</svg>
