<svg xmlns="http://www.w3.org/2000/svg" width="32" height="32" viewBox="0 0 32 32"><g transform="translate(-278.36 115.607)"><g transform="translate(277.4 -115.607)"><path fill="#f49d3b" d="m 20.969513,3.0329882 c 4.456271,3.9334833 6.941308,12.4152798 5.564394,19.4669668 l -3.042683,0.0082"/><path fill="#febb46" fill-rule="evenodd" d="M 18.376918,2.5823372 C 17.492114,3.8111941 16.033401,4.5336507 14.482534,4.5130532 13.90096,6.0264958 12.386161,7.1669116 10.49484,7.5119408 9.0744012,7.6189399 7.8985003,8.5464369 7.5713272,9.8130379 7.2441544,11.079638 7.8403916,12.396224 9.0473338,13.072295 10.254277,13.748367 11.796425,13.629602 12.86498,12.778287 L 12.5062,12.420802 c 2.165373,1.192089 5.162172,0.892232 6.858089,-0.686213 l -0.721618,0.589971 c -0.984736,1.274703 -1.048215,2.31035 -4.656989,3.219144 -3.608774,0.908794 -4.9720217,4.818355 -4.2444017,7.986155 l 1.7573037,-0.005 3.59e-4,2.983256 9.002115,-2.8e-5 -6.88e-4,-3.006487 2.16126,-0.0032 C 25.491209,17.300972 25.000645,9.8212059 21.498036,4.5138798"/><path fill="none" stroke="#12141a" stroke-linecap="round" stroke-linejoin="round" d="M11.012753 11.017971A15.76725 11.001381 0 0 1 8.506431 12.505013M15.861786 7.5080603l1 0"/><path fill="#f49d3b" fill-rule="evenodd" stroke="#f49d3b" d="m 12,24.5 8,0"/><path fill="#f49d3b" fill-rule="evenodd" d="M 16.936084,23.524859 20.50037,23.5016 22.66163,23.4984 C 25.491209,17.300972 25.000645,9.8212059 21.498036,4.5138798 25.37958,19 16.936084,23.524859 16.936084,23.524859 Z"/><path fill="none" stroke="#12141a" stroke-linecap="round" stroke-linejoin="round" d="m 20.969513,3.0329882 c 4.456271,3.9334833 6.941308,12.4152798 5.564394,19.4669668 l -3.042683,0.0082"/><path fill="#fed87f" fill-rule="evenodd" d="M19.828328 11.734589l-1.185657.589971c-.984736 1.274703-1.048215 2.31035-4.656989 3.219144-3.608774.908794-4.9720217 4.818355-4.2444017 7.986155l3.2885537-.005C14 16 19 18 19.828328 11.734589zM18.376918 2.5823372C17.492114 3.8111941 16.033401 4.5336507 14.482534 4.5130532 13.90096 6.0264958 12.386161 7.1669116 10.49484 7.5119408 9.0744012 7.6189399 7.8985002 8.5464369 7.5713272 9.8130379 7.423257 10.386269 7.5580734 11.430677 8.0014767 12.007252 8.4951688 8 19 7.5536983 18.376918 2.5823372z" opacity=".421"/><path fill="none" stroke="#12141a" stroke-linecap="round" stroke-linejoin="round" d="M 18.376918,2.5823372 C 17.492114,3.8111941 16.033401,4.5336507 14.482534,4.5130532 13.90096,6.0264958 12.386161,7.1669116 10.49484,7.5119408 9.0744012,7.6189399 7.8985003,8.5464369 7.5713272,9.8130379 7.2441544,11.079638 7.8403916,12.396224 9.0473338,13.072295 10.254277,13.748367 11.796425,13.629602 12.86498,12.778287 L 12.5062,12.420802 c 2.165373,1.192089 5.162172,0.892232 6.858089,-0.686213 l -0.721618,0.589971 c -0.984736,1.274703 -1.048215,2.31035 -4.656989,3.219144 C 10.376908,16.452498 9.0136603,20.3347 9.7412803,23.5025 l 1.7573037,-0.005 3.59e-4,3.010615 9.002115,-2.8e-5 -6.88e-4,-3.006487 2.16126,-0.0032 C 25.491209,17.300972 25.000645,9.8212059 21.498036,4.5138798 Z"/><path fill="none" stroke="#12141a" d="m 11,23.5 10,0"/><path fill="#febb46" d="m 21.347803,6.5046086 c 0.686902,-2.6423008 -0.983071,-5.3198307 -3.820567,-6.00464317 0.30102,0.3548275 0.636256,1.04282547 0.824702,1.84451637 0.188449,0.8016899 0.205258,1.6113889 0.04482,2.1585964"/><path fill="#f49d3b" d="m 21.347803,6.7858586 c 0.686902,-2.6423008 -0.983071,-5.6010807 -3.820567,-6.28589317 0.30102,0.3548275 2.980006,2.05845047 3.355952,5.95389137"/><path fill="#fed87f" d="M 18.634411,4.925459 C 19.805918,4.4912842 19.63132,2.4176134 18.108018,0.89067306 18.300729,1.3142036 18.590081,2.0403792 18.363317,4.995538 Z" opacity=".421"/><path fill="none" stroke="#12141a" stroke-linecap="round" stroke-linejoin="round" d="m 21.347803,6.5046086 c 0.686902,-2.6423008 -0.983071,-5.3198307 -3.820567,-6.00464317 0.30102,0.3548275 0.636256,1.04282547 0.824702,1.84451637 0.188449,0.8016899 0.205258,1.6113889 0.04482,2.1585964"/><path fill="#1b1e34" stroke="#12141a" stroke-linecap="round" d="m 8.62546,28.505856 c -0.90151,0 -1.625459,0.61482 -1.625459,1.378906 l 0,0.236328 c 0,0.0086 0.0019,0.01678 0.0021,0.02539 l -0.0021,0 0,1.353516 1.625459,0 14.749081,0 1.625459,0 0,-1.353516 -0.0021,0 C 24.998085,30.13788 25,30.12974 25,30.12109 l 0,-0.236328 c 0,-0.764086 -0.723949,-1.378906 -1.625459,-1.378906 l -14.749081,0 z" color="#000" overflow="visible" style="isolation:auto;mix-blend-mode:normal"/><path fill="#2e303e" fill-rule="evenodd" d="m 10.102866,28.993144 2,0 c -0.329721,0.365177 -0.446222,0.717567 -0.459698,1.059016 -0.0132,0.334438 0.01382,0.501041 0.01382,0.940984 l -2.073032,0 c 0,-0.578897 -0.01417,-0.680508 -0.0051,-1.020761 0.0087,-0.326413 0.184873,-0.652826 0.524028,-0.979239 z"/><rect width="13.832" height="3" x="9.118" y="25.506" fill="#fece5f" stroke="#12141a" rx="1.5" ry="1.5"/><path fill="#fed87f" fill-rule="evenodd" d="m 11.088036,26.005856 2,0 c -0.641909,0.710936 -0.586385,1.373774 0,2 l -2,0 c -0.705588,-0.666667 -0.692693,-1.333333 0,-2 z"/><path fill="#fed36e" fill-rule="evenodd" d="m 13.805037,26.005856 0.712924,0 c -0.641909,0.710936 -0.586385,1.373774 0,2 l -0.712924,0 c -0.705588,-0.666667 -0.692693,-1.333333 0,-2 z"/><path fill="#24273b" fill-rule="evenodd" d="m 12.851807,28.993144 0.776483,0 c -0.329721,0.365177 -0.446222,0.717567 -0.459698,1.059016 -0.0132,0.334438 0.01382,0.501041 0.01382,0.940984 l -0.849515,0 c 0,-0.578897 -0.01417,-0.680508 -0.0051,-1.020761 0.0087,-0.326413 0.184873,-0.652826 0.524028,-0.979239 z"/><path fill="#f9a74a" fill-rule="evenodd" d="m 21.175957,26.005856 -1.101135,0 c 0.641909,0.710936 0.586385,1.373774 0,2 l 1.101135,0 c 0.705588,-0.666667 0.692693,-1.333333 0,-2 z"/><path fill="#16192b" fill-rule="evenodd" d="m 22.789159,28.993144 -1.370795,0 c 0.329721,0.365177 0.446222,0.717567 0.459698,1.059016 0.0132,0.334438 -0.01382,0.501041 -0.01382,0.940984 l 1.443827,0 c 0,-0.578897 0.01417,-0.680508 0.0051,-1.020761 -0.0087,-0.326413 -0.184873,-0.652826 -0.524028,-0.979239 z"/></g><path fill="#fff" fill-rule="evenodd" style="line-height:normal;text-indent:0;text-align:start;text-decoration-line:none;text-decoration-style:solid;text-decoration-color:#000;text-transform:none;block-progression:tb;isolation:auto;mix-blend-mode:normal" d="m 288.00079,-89.897204 c -0.146,0.14601 -0.61226,0.30613 -0.61226,0.30613 0,0 0.46865,0.16253 0.61226,0.30613 0.1436,0.14361 0.30613,0.60628 0.30613,0.60628 0,0 0.16252,-0.46267 0.30613,-0.60628 0.1436,-0.1436 0.61226,-0.30613 0.61226,-0.30613 0,0 -0.46626,-0.16012 -0.61226,-0.30613 -0.146,-0.146 -0.30613,-0.6266 -0.30613,-0.6266 0,0 -0.16013,0.4806 -0.30613,0.6266 z" color="#000" font-family="sans-serif" font-weight="400" overflow="visible" white-space="normal"/></g></svg>