<?xml version="1.0" encoding="utf-8"?>
<!-- Generator: Adobe Illustrator 25.2.0, SVG Export Plug-In . SVG Version: 6.00 Build 0)  -->
<svg version="1.1" id="Layer_1" xmlns="http://www.w3.org/2000/svg" xmlns:xlink="http://www.w3.org/1999/xlink" x="0px" y="0px"
	 viewBox="0 0 2339.56 1637.66" style="enable-background:new 0 0 2339.56 1637.66;" xml:space="preserve">
<style type="text/css">
	.st0{fill:#FFFFFF;}
</style>
<g>
	<rect x="169.78" y="532.88" width="2000" height="571.9"/>
	<path class="st0" d="M2079.98,943.38c-3.9,1.1-7.2,1.7-10.5,1.7c-11.7,0-17.2-5-17.2-19.4v-108.7c0-57.1-45.5-84.9-99.3-84.9
		c-41.1,0-63.2,5-107.1,22.7l-9.8,57.6l57.1,6.1l8.1-28.2c11.7-6.1,23.3-7.2,38.3-7.2c40.5,0,41.1,30.5,41.1,56v8.3
		c-12.8-1.7-27.2-2.2-41.1-2.2c-57.1,0-116.5,14.4-116.5,76c0,52.1,41,71.6,77.1,71.6c40.5,0,66-24.4,80.4-49.9
		c3.3,30.5,21.6,49.9,54.9,49.9c15.5,0,31.6-4.4,44.9-11.7L2079.98,943.38z M1926.38,941.78c-21.6,0-29.4-12.8-29.4-28.9
		c0-27.2,22.2-34.4,47.7-34.4c11.6,0,24.4,1.7,36.1,3.3C1979.08,923.48,1951.88,941.78,1926.38,941.78z M1830.28,605.58
		l-108.2,381.7h-70.5l108.2-381.7H1830.28z M1684.98,605.58l-108.2,381.7h-70.4l108.2-381.7H1684.98L1684.98,605.58z
		 M1384.58,737.08h74.9v89.8h-74.9V737.08z M1384.58,897.38h74.9v89.9h-74.9V897.38z M1275.58,894.08l56.6,5.5l-15.5,87.7h-218.6
		l-7.2-37.7l137.6-158.1h-78.2l-11.1,38.8l-51.6-5.6l8.9-87.7h219.7l5.6,37.7l-138.8,158.2h81L1275.58,894.08z M917.08,732.08
		c-89.9,0-134.3,60.5-134.3,133.7c0,79.9,53.3,127,130.4,127c79.9,0,137.6-50.5,137.6-130.4
		C1050.78,792.48,1006.88,732.08,917.08,732.08z M915.38,937.88c-38.8,0-58.8-33.3-58.8-76.6c0-47.2,22.7-74.3,59.4-74.3
		c33.8,0,61,22.7,61,73.2C976.98,907.88,952.58,937.88,915.38,937.88z M718.38,932.88h33.3v54.4h-104.9v-140.9
		c0-43.3-14.4-59.9-42.7-59.9c-34.4,0-48.3,24.4-48.3,59.4v87h33.3v54.4h-104.8v-140.9c0-43.3-14.4-59.9-42.7-59.9
		c-34.4,0-48.3,24.4-48.3,59.4v87h47.7v54.4h-152.5v-54.4h33.3v-141.5h-33.3v-54.4h104.8v37.7c15-26.6,41.1-42.7,76-42.7
		c36.1,0,69.3,17.2,81.6,53.8c13.9-33.3,42.2-53.8,81.6-53.8c44.9,0,86,27.2,86,86.5v114.4H718.38z"/>
</g>
</svg>
